# xmcd
#
# Track frame offsets:
# 150
# 13552
# 30317
# 49208
# 68214
# 86961
# 100495
# 116656
# 131850
# 148697
# 165977
# 179098
# 192902
# 208596
# 224177
# 240239
# 257321
# 271303
# 287896
# 303172
#
# Disc length: 4233 seconds
#
#
# Revision: 0
# Processed by: cddbd v1.5.2PL0 Copyright (c) Steve Scherf et al.
# Submitted via: FreeRIP 2.944 
#
DISCID=2d108714
DTITLE=Rud e Robson - Rud e Robson
DYEAR=2008
DGENRE=sertaneja
TTITLE0=Rud e Robson -  Posto de gasolina
TTITLE1=Rud e Robson - Beber Cair levantar
TTITLE2=Rud e Robson - Tatuagem
TTITLE3=Rud e Robsson - Talvez seja amor
TTITLE4=Rud e Robson - Volta pra mim
TTITLE5=Rud e Robson - Tomá um gole
TTITLE6=Rud e Robson - Porta de bar
TTITLE7=Rud e Robson - Se eu te amo
TTITLE8=Rud e Robson - Quem não quer sou eu
TTITLE9=Rud e Robson - Coração
TTITLE10=Rud e Robson - Noite em Sao Paulo
TTITLE11=Rud e Robson - A chapa vai esquentar
TTITLE12=Rud e Robson - O caipira e a roqueira
TTITLE13=Rud e Robson - wwww.volta pra mim
TTITLE14=Rud e Robson - To abrindo as porta do meu coração
TTITLE15=Rud e Robson - Mais do que a mim mesmo
TTITLE16=Rud e Robson - Sabado
TTITLE17=Rud e Robson - Vai
TTITLE18=Rud e Robson - Dois apaixonados
TTITLE19=Rud e Robson - Bailão das torcidas
EXTD=
EXTT0=
EXTT1=
EXTT2=
EXTT3=
EXTT4=
EXTT5=
EXTT6=
EXTT7=
EXTT8=
EXTT9=
EXTT10=
EXTT11=
EXTT12=
EXTT13=
EXTT14=
EXTT15=
EXTT16=
EXTT17=
EXTT18=
EXTT19=
PLAYORDER=
